<?xml version="1.0" encoding="utf-8"?>
<!-- Generator: Adobe Illustrator 16.0.3, SVG Export Plug-In . SVG Version: 6.00 Build 0)  -->
<!DOCTYPE svg PUBLIC "-//W3C//DTD SVG 1.1//EN" "http://www.w3.org/Graphics/SVG/1.1/DTD/svg11.dtd">
<svg version="1.1" id="Capa_1" xmlns="http://www.w3.org/2000/svg" xmlns:xlink="http://www.w3.org/1999/xlink" x="0px" y="0px"
	 width="60px" height="60px" viewBox="0 0 60 60" enable-background="new 0 0 60 60" xml:space="preserve">
<g>
	<path fill="#FFFFFF" d="M30,26.255c-3.624,0-6.584,2.96-6.584,6.584s2.96,6.584,6.584,6.584s6.584-2.96,6.584-6.584
		S33.624,26.255,30,26.255z"/>
	<path fill="#FFFFFF" d="M55.007,12.906h-1.853v-0.685c0-2.759-2.234-4.994-4.993-4.994H34.973C32.234,7.228,30,9.463,30,12.222
		v0.685H4.993C2.235,12.906,0,15.141,0,17.879v29.899c0,2.759,2.235,4.974,4.993,4.974h50.034c2.758,0,4.992-2.235,4.992-4.994
		V17.879C60,15.141,57.766,12.906,55.007,12.906z M9.242,26.255c-2.215,0-4.027-1.812-4.027-4.027c0-2.214,1.812-4.027,4.027-4.027
		s4.027,1.813,4.027,4.027C13.269,24.463,11.477,26.255,9.242,26.255z M30,47.477c-8.074,0-14.638-6.564-14.638-14.638
		c0-8.074,6.564-14.638,14.638-14.638c8.074,0,14.638,6.564,14.638,14.638C44.638,40.912,38.074,47.477,30,47.477z"/>
</g>
</svg>
