<?xml version="1.0" encoding="utf-8"?>
<!-- Generator: Adobe Illustrator 16.0.3, SVG Export Plug-In . SVG Version: 6.00 Build 0)  -->
<!DOCTYPE svg PUBLIC "-//W3C//DTD SVG 1.1//EN" "http://www.w3.org/Graphics/SVG/1.1/DTD/svg11.dtd">
<svg version="1.1" id="Capa_1" xmlns="http://www.w3.org/2000/svg" xmlns:xlink="http://www.w3.org/1999/xlink" x="0px" y="0px"
	 width="60px" height="60px" viewBox="0 0 60 60" enable-background="new 0 0 60 60" xml:space="preserve">
<title>caterers</title>
<path fill="#FFFFFF" d="M20.362,27.758c0.032-0.646,0.079-1.277,0.158-1.939c0.189-1.544,0.457-3.073,0.835-4.586
	c0.205-0.757,0.441-1.498,0.662-2.222c0.299-0.709,0.599-1.403,0.898-2.096c0.662-1.34,1.418-2.585,2.301-3.641
	c0.205-0.268,0.425-0.536,0.63-0.788c0.236-0.237,0.473-0.457,0.693-0.694c0.473-0.425,0.883-0.898,1.371-1.245
	c0.946-0.709,1.797-1.372,2.648-1.781c0.819-0.457,1.528-0.851,2.175-1.087c1.245-0.504,1.954-0.756,1.954-0.756
	s-0.599,0.473-1.655,1.261c-0.551,0.362-1.118,0.914-1.812,1.497c-0.725,0.552-1.372,1.34-2.144,2.096
	c-0.378,0.378-0.693,0.867-1.056,1.308c-0.173,0.221-0.362,0.457-0.552,0.693c-0.157,0.252-0.315,0.521-0.473,0.772
	c-0.678,1.009-1.198,2.191-1.718,3.404c-0.221,0.63-0.441,1.261-0.662,1.907c-0.158,0.678-0.331,1.355-0.504,2.033
	c-0.299,1.403-0.536,2.821-0.678,4.255c-0.079,0.536-0.126,1.056-0.173,1.591c11.568,0,20.537,0.017,33.066,0.017
	c0.047-0.552,0.063-1.104,0.063-1.671c0-10.56-7.691-19.259-17.588-20.41c1.323-1.229,1.402-3.31,0.157-4.634
	c-1.245-1.324-3.31-1.402-4.634-0.157c-1.324,1.245-1.402,3.31-0.158,4.633c0.048,0.063,0.111,0.11,0.158,0.158
	c-9.897,1.182-17.588,9.866-17.588,20.425c0,0.552,0.016,1.104,0.063,1.655H20.362z"/>
<rect x="13.128" y="28.994" fill="#FFFFFF" width="46.872" height="4.129"/>
<path fill="#FFFFFF" d="M56.573,36.264c-3.025,1.699-13.587,6.143-13.587,6.143l-12.483-0.907c0,0,7.135-2.304,9.898-3.025
	c2.767-0.722,1.564-4.351,0.041-4.351s-14.889,0.652-14.889,0.652l-8.878,3.698l2.345,17.266c0,0,1.824-3.63,3.647-3.63
	s17.674,0.489,19.818,0c2.145-0.488,15.249-10.913,16.833-12.123C60.901,38.775,59.62,34.565,56.573,36.264z"/>
<polygon fill="#FFFFFF" points="0.277,39.263 -0.325,59.735 17.42,57.553 13.595,37.759 "/>
</svg>
