<?xml version="1.0" encoding="utf-8"?>
<!-- Generator: Adobe Illustrator 19.2.1, SVG Export Plug-In . SVG Version: 6.00 Build 0)  -->
<svg version="1.1" id="Capa_1" xmlns="http://www.w3.org/2000/svg" xmlns:xlink="http://www.w3.org/1999/xlink" x="0px" y="0px"
	 viewBox="0 0 240 240" style="enable-background:new 0 0 240 240;" xml:space="preserve">
<style type="text/css">
	.st0{fill:#515151;}
</style>
<g>
	<g>
		<path class="st0" d="M73.9,16c2.1,0,4.2-0.9,5.6-2.3c1.5-1.5,2.3-3.5,2.3-5.6S81,3.9,79.5,2.5C78,0.9,76,0,73.9,0
			s-4.2,0.9-5.6,2.3C66.8,3.8,66,5.8,66,7.9s0.9,4.2,2.3,5.6C69.7,15.1,71.8,16,73.9,16z"/>
		<path class="st0" d="M21.2,92.2c-2.1,0-4.2,0.9-5.6,2.3s-2.3,3.5-2.3,5.6s0.9,4.2,2.3,5.6c1.5,1.5,3.5,2.3,5.6,2.3
			s4.2-0.9,5.6-2.3s2.3-3.5,2.3-5.6s-0.9-4.2-2.3-5.6S23.3,92.2,21.2,92.2z"/>
		<path class="st0" d="M213.6,139.8c0-2.1-0.8-4.2-2.3-5.6c-1.5-1.5-3.5-2.3-5.6-2.3s-4.2,0.9-5.6,2.3c-1.5,1.5-2.3,3.5-2.3,5.6
			s0.9,4.2,2.3,5.6c1.5,1.5,3.6,2.3,5.6,2.3c2.1,0,4.2-0.9,5.6-2.3C212.8,143.9,213.6,141.9,213.6,139.8z"/>
		<path class="st0" d="M21.2,184.5c-2.1,0-4.2,0.9-5.6,2.3c-1.5,1.5-2.3,3.5-2.3,5.6s0.9,4.2,2.3,5.6c1.5,1.5,3.5,2.3,5.6,2.3
			s4.2-0.9,5.6-2.3c1.5-1.5,2.3-3.5,2.3-5.6s-0.8-4.2-2.3-5.6C25.3,185.3,23.3,184.5,21.2,184.5z"/>
		<path class="st0" d="M166.1,224c-2.1,0-4.2,0.9-5.6,2.3c-1.5,1.5-2.3,3.5-2.3,5.6s0.9,4.2,2.3,5.6s3.5,2.3,5.6,2.3
			s4.2-0.9,5.6-2.3c1.5-1.5,2.3-3.5,2.3-5.6s-0.8-4.2-2.3-5.6C170.3,224.9,168.2,224,166.1,224z"/>
		<path class="st0" d="M218.8,203.5c-2.1,0-4.2,0.9-5.6,2.3c-1.5,1.5-2.3,3.5-2.3,5.6s0.9,4.2,2.3,5.6c1.5,1.5,3.6,2.3,5.6,2.3
			c2.1,0,4.2-0.9,5.6-2.3c1.5-1.5,2.3-3.5,2.3-5.6s-0.8-4.2-2.3-5.6C223,204.3,220.9,203.5,218.8,203.5z"/>
		<path class="st0" d="M218.8,34.9c2.1,0,4.2-0.9,5.6-2.3s2.3-3.5,2.3-5.6s-0.9-4.2-2.3-5.6c-1.5-1.5-3.5-2.3-5.6-2.3
			s-4.2,0.9-5.6,2.3c-1.5,1.5-2.3,3.5-2.3,5.6s0.9,4.2,2.3,5.6C214.7,34.1,216.7,34.9,218.8,34.9z"/>
		<path class="st0" d="M21.2,19c-2.1,0-4.2,0.9-5.6,2.3s-2.3,3.5-2.3,5.6s0.9,4.2,2.3,5.6c1.5,1.5,3.5,2.3,5.6,2.3s4.2-0.9,5.6-2.3
			c1.5-1.5,2.3-3.5,2.3-5.6s-0.8-4.2-2.3-5.6C25.3,19.8,23.3,19,21.2,19z"/>
	</g>
	<g>
		<polygon class="st0" points="95.8,99.7 169.6,71.8 144.4,65.5 70.7,93.4 		"/>
		<path class="st0" d="M181.7,187.2v-29.9c0-0.8-0.4-1.5-1-2c-0.4-0.3-0.9-0.4-1.4-0.4c-0.3,0-0.6,0.1-0.8,0.2L59.9,199.9
			c-0.9,0.4-1.5,1.3-1.5,2.2V232c0,0.8,0.4,1.5,1,2c0.6,0.4,1.5,0.5,2.2,0.3l118.6-44.8C181.1,189.1,181.7,188.2,181.7,187.2z"/>
		<path class="st0" d="M181.7,112.5V82.7c0-0.8-0.4-1.5-1-2c-0.4-0.3-0.9-0.4-1.4-0.4c-0.3,0-0.6,0.1-0.8,0.2L59.9,125.2
			c-0.9,0.3-1.5,1.2-1.5,2.2v29.9c0,0.8,0.4,1.5,1,2c0.6,0.4,1.5,0.5,2.2,0.3l118.6-44.8C181.1,114.4,181.7,113.5,181.7,112.5z"/>
		<path class="st0" d="M178.5,5.7L59.9,50.5c-0.9,0.4-1.5,1.3-1.5,2.2v29.9c0,0.8,0.4,1.5,1,2c0.6,0.4,1.5,0.5,2.2,0.3l118.6-44.8
			c0.9-0.3,1.5-1.3,1.5-2.2V8c0-0.8-0.4-1.5-1-2c-0.4-0.3-0.9-0.4-1.4-0.4C179,5.6,178.7,5.6,178.5,5.7z"/>
		<polygon class="st0" points="144.2,140.3 70.5,168.2 95.6,174.5 169.3,146.6 		"/>
	</g>
</g>
</svg>
