<?xml version="1.0" encoding="utf-8"?>
<!-- Generator: Adobe Illustrator 16.0.3, SVG Export Plug-In . SVG Version: 6.00 Build 0)  -->
<!DOCTYPE svg PUBLIC "-//W3C//DTD SVG 1.1//EN" "http://www.w3.org/Graphics/SVG/1.1/DTD/svg11.dtd">
<svg version="1.1" id="Layer_1" xmlns="http://www.w3.org/2000/svg" xmlns:xlink="http://www.w3.org/1999/xlink" x="0px" y="0px"
	 width="60px" height="60px" viewBox="0 0 60 60" enable-background="new 0 0 60 60" xml:space="preserve">
<path fill="#FFFFFF" d="M30,3L7.5,18h45L30,3z M10.5,21c-1.662,0-3,1.338-3,3v21l-5.25,9c-0.444,0.762-0.75,1.068-0.75,1.5
	c0,1.5,1.896,1.5,3,1.5h51c1.063,0,3,0,3-1.5c0-0.438-0.258-0.66-0.75-1.5l-5.25-9V24c0-1.662-1.338-3-3-3H10.5z M16.5,27
	c1.662,0,2.724,1.362,3,3v18h-6V30C13.5,28.338,14.838,27,16.5,27L16.5,27z M30,27c1.662,0,3.023,1.338,3,3v18h-6V30
	C27,28.338,28.338,27,30,27L30,27z M43.5,27c1.662,0,3,1.338,3,3v18h-6V30C40.5,28.338,41.838,27,43.5,27L43.5,27z"/>
</svg>
