<?xml version="1.0" encoding="utf-8"?>
<!-- Generator: Adobe Illustrator 19.2.1, SVG Export Plug-In . SVG Version: 6.00 Build 0)  -->
<svg version="1.1" id="Layer_1" xmlns="http://www.w3.org/2000/svg" xmlns:xlink="http://www.w3.org/1999/xlink" x="0px" y="0px"
	 viewBox="0 0 950 1000" style="enable-background:new 0 0 950 1000;" xml:space="preserve">
<style type="text/css">
	.st0{fill:#515151;}
</style>
<path class="st0" d="M475,50L100,300h750L475,50z M150,350c-27.7,0-50,22.3-50,50v350L12.5,900C5.1,912.7,0,917.8,0,925
	c0,25,31.6,25,50,25h850c17.7,0,50,0,50-25c0-7.3-4.3-11-12.5-25L850,750V400c0-27.7-22.3-50-50-50H150z M250,450
	c27.7,0,45.4,22.7,50,50v300H200V500C200,472.3,222.3,450,250,450L250,450z M475,450c27.7,0,50.4,22.3,50,50v300H425V500
	C425,472.3,447.3,450,475,450L475,450z M700,450c27.7,0,50,22.3,50,50v300H650V500C650,472.3,672.3,450,700,450L700,450z"/>
</svg>
