<?xml version="1.0" encoding="utf-8"?>
<!-- Generator: Adobe Illustrator 19.2.1, SVG Export Plug-In . SVG Version: 6.00 Build 0)  -->
<svg version="1.1" id="Capa_1" xmlns="http://www.w3.org/2000/svg" xmlns:xlink="http://www.w3.org/1999/xlink" x="0px" y="0px"
	 viewBox="0 0 380.7 342.1" style="enable-background:new 0 0 380.7 342.1;" xml:space="preserve">
<style type="text/css">
	.st0{fill:#515151;}
</style>
<title>caterers</title>
<path class="st0" d="M129.2,175.9c0.2-4.1,0.5-8.1,1-12.3c1.2-9.8,2.9-19.5,5.3-29.1c1.3-4.8,2.8-9.5,4.2-14.1
	c1.9-4.5,3.8-8.9,5.7-13.3c4.2-8.5,9-16.4,14.6-23.1c1.3-1.7,2.7-3.4,4-5c1.5-1.5,3-2.9,4.4-4.4c3-2.7,5.6-5.7,8.7-7.9
	c6-4.5,11.4-8.7,16.8-11.3c5.2-2.9,9.7-5.4,13.8-6.9c7.9-3.2,12.4-4.8,12.4-4.8s-3.8,3-10.5,8c-3.5,2.3-7.1,5.8-11.5,9.5
	c-4.6,3.5-8.7,8.5-13.6,13.3c-2.4,2.4-4.4,5.5-6.7,8.3c-1.1,1.4-2.3,2.9-3.5,4.4c-1,1.6-2,3.3-3,4.9c-4.3,6.4-7.6,13.9-10.9,21.6
	c-1.4,4-2.8,8-4.2,12.1c-1,4.3-2.1,8.6-3.2,12.9c-1.9,8.9-3.4,17.9-4.3,27c-0.5,3.4-0.8,6.7-1.1,10.1c73.4,0,130.3,0.1,209.8,0.1
	c0.3-3.5,0.4-7,0.4-10.6c0-67-48.8-122.2-111.6-129.5c8.4-7.8,8.9-21,1-29.4s-21-8.9-29.4-1s-8.9,21-1,29.4c0.3,0.4,0.7,0.7,1,1
	C155,43.3,106.2,98.4,106.2,165.4c0,3.5,0.1,7,0.4,10.5H129.2z"/>
<rect x="83.3" y="183.7" class="st0" width="297.4" height="26.2"/>
<path class="st0" d="M258.6,228.5c-15.1,7.3-67.8,26.4-67.8,26.4l-62.3-3.9c0,0,35.6-9.9,49.4-13s7.8-18.7,0.2-18.7
	s-74.3,2.8-74.3,2.8L59.5,238l11.7,74.2c0,0,9.1-15.6,18.2-15.6s88.2,2.1,98.9,0s76.1-46.9,84-52.1S273.8,221.2,258.6,228.5z"/>
<polygon class="st0" points="0,245.9 0,342.1 67.8,329.4 50.9,237 "/>
</svg>
