<?xml version="1.0" encoding="utf-8"?>
<!-- Generator: Adobe Illustrator 16.0.3, SVG Export Plug-In . SVG Version: 6.00 Build 0)  -->
<!DOCTYPE svg PUBLIC "-//W3C//DTD SVG 1.1//EN" "http://www.w3.org/Graphics/SVG/1.1/DTD/svg11.dtd">
<svg version="1.1" id="Capa_1" xmlns="http://www.w3.org/2000/svg" xmlns:xlink="http://www.w3.org/1999/xlink" x="0px" y="0px"
	 width="60px" height="60px" viewBox="0 0 60 60" enable-background="new 0 0 60 60" xml:space="preserve">
<g>
	<path fill="#FFFFFF" d="M55.841,54.219h-1.214V24.238l0,0c-1.497,0-2.908-0.483-4.084-1.313c-0.793,0.557-1.709,0.966-2.724,1.176
		c-0.458,0.086-0.94,0.136-1.399,0.136c-0.309,0-0.605-0.037-0.916-0.074V46.47c0,1.275-1.027,2.303-2.302,2.303h-8.294v-6.313
		l2.922,4.877c0.346,0.582,0.953,0.892,1.584,0.892c0.322,0,0.644-0.087,0.941-0.26c0.865-0.521,1.15-1.659,0.631-2.525
		l-5.867-9.804c-0.359-0.606-1.027-0.904-1.684-0.867c-0.05,0-6.809,0-6.846,0c-0.668-0.049-1.337,0.261-1.708,0.879l-5.868,9.805
		c-0.52,0.879-0.235,2.006,0.631,2.525c0.297,0.173,0.619,0.26,0.941,0.26c0.631,0,1.238-0.322,1.584-0.892l2.934-4.901v6.325
		h-8.306c-1.275,0-2.302-1.027-2.302-2.303V24.164c-0.297,0.037-0.606,0.074-0.916,0.074c-0.458,0-0.941-0.05-1.411-0.136
		c-1.015-0.198-1.919-0.619-2.711-1.176c-1.176,0.817-2.6,1.313-4.085,1.313l0,0v29.981H4.159c-1.597,0-2.884,1.287-2.884,2.885
		c0,1.597,1.288,2.885,2.884,2.885h51.682c1.597,0,2.884-1.288,2.884-2.885C58.725,55.52,57.438,54.219,55.841,54.219z"/>
	<path fill="#FFFFFF" d="M29.994,24.411c-2.117,0-3.837,1.968-3.837,4.395c0,2.426,1.721,4.394,3.837,4.394s3.837-1.968,3.837-4.394
		C33.831,26.379,32.123,24.411,29.994,24.411z"/>
	<path fill="#FFFFFF" d="M4.196,20.995c0.396,0.111,0.792,0.173,1.176,0.173c1.77,0,3.404-1.151,3.924-2.934l0.21-0.718
		c0.198,1.733,1.461,3.218,3.256,3.577c0.272,0.05,0.544,0.075,0.805,0.075c1.918,0,3.627-1.35,4.023-3.305l0.099-0.508
		c0.136,1.956,1.659,3.59,3.676,3.788c0.136,0.012,0.272,0.025,0.409,0.025c2.08,0,3.862-1.585,4.072-3.702l0.025-0.309
		c0.062,2.216,1.857,3.998,4.098,3.998c2.228,0,4.035-1.782,4.097-3.998l0.025,0.309c0.21,2.117,1.992,3.702,4.072,3.702
		c0.136,0,0.271,0,0.408-0.025c2.018-0.198,3.541-1.832,3.677-3.788l0.099,0.508c0.384,1.956,2.104,3.305,4.023,3.305
		c0.26,0,0.532-0.025,0.805-0.075c1.795-0.359,3.07-1.844,3.256-3.577l0.21,0.718c0.532,1.783,2.167,2.934,3.925,2.934
		c0.383,0,0.779-0.062,1.176-0.173c2.166-0.644,3.404-2.934,2.76-5.1L54.851,3.491C54.231,1.411,52.325,0,50.172,0H9.829
		c-2.166,0-4.06,1.411-4.679,3.491L1.448,15.882C0.792,18.048,2.03,20.338,4.196,20.995z"/>
</g>
</svg>
