<?xml version="1.0" encoding="utf-8"?>
<!-- Generator: Adobe Illustrator 19.2.1, SVG Export Plug-In . SVG Version: 6.00 Build 0)  -->
<svg version="1.1" id="Capa_1" xmlns="http://www.w3.org/2000/svg" xmlns:xlink="http://www.w3.org/1999/xlink" x="0px" y="0px"
	 viewBox="0 0 407.5 407.5" style="enable-background:new 0 0 407.5 407.5;" xml:space="preserve">
<style type="text/css">
	.st0{fill:none;}
	.st1{fill:#515151;}
	.st2{display:none;}
</style>
<g>
	<g>
		<path class="st0" d="M203.8,310.9c86.7-47.2,82.8-94,79.5-107.4c-4.7-19.1-21.1-33-39-33c-13.3,0-25.4,7.7-34.1,21.7
			c-1.4,2.2-3.8,3.5-6.4,3.5c-2.6,0-5-1.3-6.4-3.5c-8.7-14-20.8-21.7-34.1-21.7c-17.9,0-34.3,13.9-39,33
			C121,216.8,117.1,263.7,203.8,310.9z M147.9,240.2c-0.9,0.4-1.9,0.5-2.8,0.5c-3,0-5.8-1.8-7-4.7c-5.2-13-4.8-26.1,1.1-37
			c5.2-9.5,14-16,24.1-17.9c4.1-0.8,8,1.9,8.8,6s-1.9,8-6,8.8c-5.6,1-10.7,4.9-13.7,10.4c-3.8,6.9-3.9,15.4-0.4,24.1
			C153.6,234.3,151.8,238.6,147.9,240.2z"/>
		<path class="st1" d="M336.1,74.9h-72.8V7.5c0-2.5-1.2-4.8-3.3-6.2c-2.1-1.4-4.7-1.7-7-0.7L69,74.9c-1.3,0.5-2.5,1.5-3.4,2.7
			c-1.1,1.3-1.7,3-1.7,4.8V400c0,4.1,3.4,7.5,7.5,7.5h264.7c4.1,0,7.5-3.4,7.5-7.5V82.4C343.6,78.2,340.3,74.9,336.1,74.9z
			 M248.3,18.6v56.2H109.8L248.3,18.6z M328.6,392.5H78.9V89.9h249.7V392.5L328.6,392.5z"/>
		<rect x="78.9" y="89.9" class="st1" width="249.7" height="302.6"/>
		<path class="st2" d="M152.1,230.4c-3.5-8.7-3.4-17.3,0.4-24.1c3-5.5,8.1-9.4,13.7-10.4c4.1-0.8,6.8-4.7,6-8.8s-4.7-6.7-8.8-6
			c-10.1,1.9-18.9,8.4-24.1,17.9c-5.9,10.9-6.3,24-1.1,37c1.2,2.9,4,4.7,7,4.7c0.9,0,1.9-0.2,2.8-0.5
			C151.8,238.6,153.6,234.3,152.1,230.4z"/>
		<path class="st2" d="M200.3,326c1.1,0.6,2.3,0.9,3.5,0.9s2.4-0.3,3.5-0.9c36.4-19.3,62.6-41.1,77.8-64.8
			c16.6-26,16.1-47.7,12.7-61.3c-6.4-25.7-28.9-44.3-53.6-44.3c-15.5,0-29.5,7-40.5,20c-10.9-13-25-20-40.5-20
			c-24.7,0-47.2,18.6-53.6,44.3c-3.4,13.7-3.9,35.4,12.7,61.3C137.7,284.9,163.8,306.7,200.3,326z M124.3,203.5
			c4.7-19.1,21.1-33,39-33c13.3,0,25.4,7.7,34.1,21.7c1.4,2.2,3.8,3.5,6.4,3.5c2.6,0,5-1.3,6.4-3.5c8.7-14,20.8-21.7,34.1-21.7
			c17.9,0,34.2,13.9,39,33c3.3,13.4,7.2,60.2-79.5,107.4C117.1,263.7,121,216.8,124.3,203.5z"/>
	</g>
</g>
</svg>
