<?xml version="1.0" encoding="utf-8"?>
<!-- Generator: Adobe Illustrator 19.2.1, SVG Export Plug-In . SVG Version: 6.00 Build 0)  -->
<svg version="1.1" id="Capa_1" xmlns="http://www.w3.org/2000/svg" xmlns:xlink="http://www.w3.org/1999/xlink" x="0px" y="0px"
	 viewBox="0 0 298 298" style="enable-background:new 0 0 298 298;" xml:space="preserve">
<style type="text/css">
	.st0{fill:#515151;}
</style>
<g>
	<path class="st0" d="M149,130.4c-18,0-32.7,14.7-32.7,32.7s14.7,32.7,32.7,32.7s32.7-14.7,32.7-32.7S167,130.4,149,130.4z"/>
	<path class="st0" d="M273.2,64.1H264v-3.4c0-13.7-11.1-24.8-24.8-24.8h-65.5C160.1,35.9,149,47,149,60.7v3.4H24.8
		C11.1,64.1,0,75.2,0,88.8v148.5C0,251,11.1,262,24.8,262h248.5c13.7,0,24.8-11.1,24.8-24.8V88.8C298,75.2,286.9,64.1,273.2,64.1z
		 M45.9,130.4c-11,0-20-9-20-20s9-20,20-20s20,9,20,20C65.9,121.5,57,130.4,45.9,130.4z M149,235.8c-40.1,0-72.7-32.6-72.7-72.7
		s32.6-72.7,72.7-72.7s72.7,32.6,72.7,72.7S189.1,235.8,149,235.8z"/>
</g>
</svg>
