<?xml version="1.0" encoding="utf-8"?>
<!-- Generator: Adobe Illustrator 16.0.3, SVG Export Plug-In . SVG Version: 6.00 Build 0)  -->
<!DOCTYPE svg PUBLIC "-//W3C//DTD SVG 1.1//EN" "http://www.w3.org/Graphics/SVG/1.1/DTD/svg11.dtd">
<svg version="1.1" id="Capa_1" xmlns="http://www.w3.org/2000/svg" xmlns:xlink="http://www.w3.org/1999/xlink" x="0px" y="0px"
	 width="60px" height="60px" viewBox="0 0 60 60" enable-background="new 0 0 60 60" xml:space="preserve">
<g>
	<g>
		<path fill="#FFFFFF" d="M30.007,45.777c12.766-6.95,12.192-13.842,11.706-15.814c-0.691-2.813-3.107-4.859-5.742-4.859
			c-1.959,0-3.74,1.134-5.021,3.195c-0.205,0.324-0.559,0.516-0.942,0.516s-0.736-0.191-0.942-0.516
			c-1.281-2.061-3.063-3.195-5.021-3.195c-2.635,0-5.05,2.046-5.742,4.859C17.816,31.922,17.242,38.827,30.007,45.777z
			 M21.777,35.367c-0.133,0.059-0.28,0.073-0.413,0.073c-0.441,0-0.854-0.265-1.03-0.692c-0.766-1.914-0.707-3.843,0.162-5.447
			c0.766-1.399,2.062-2.356,3.548-2.636c0.604-0.118,1.178,0.28,1.296,0.883c0.118,0.604-0.28,1.178-0.883,1.296
			c-0.825,0.147-1.576,0.721-2.017,1.531c-0.56,1.016-0.574,2.267-0.059,3.548C22.616,34.498,22.351,35.131,21.777,35.367z"/>
		<path fill="#FFFFFF" d="M49.487,11.028h-10.72V1.104c0-0.368-0.176-0.707-0.485-0.913s-0.692-0.25-1.03-0.103L10.16,11.028
			c-0.191,0.074-0.368,0.221-0.501,0.397c-0.162,0.191-0.25,0.442-0.25,0.707v46.763c0,0.604,0.5,1.104,1.104,1.104h38.975
			c0.604,0,1.104-0.5,1.104-1.104V12.132C50.592,11.514,50.105,11.028,49.487,11.028z M36.56,2.739v8.275H16.167L36.56,2.739z
			 M48.383,57.791H11.617V13.237h36.766V57.791L48.383,57.791z"/>
		<rect x="11.617" y="13.237" fill="#FFFFFF" width="36.766" height="44.554"/>
		<path display="none" fill="#FCFCFC" d="M22.395,33.924c-0.515-1.281-0.5-2.547,0.059-3.548c0.441-0.81,1.192-1.384,2.017-1.531
			c0.604-0.118,1.001-0.692,0.883-1.296c-0.118-0.604-0.692-0.986-1.295-0.883c-1.487,0.28-2.783,1.237-3.549,2.636
			c-0.869,1.604-0.927,3.533-0.162,5.447c0.177,0.428,0.589,0.692,1.03,0.692c0.133,0,0.28-0.029,0.413-0.073
			C22.351,35.131,22.616,34.498,22.395,33.924z"/>
		<path display="none" fill="#FCFCFC" d="M29.492,48c0.162,0.088,0.338,0.133,0.515,0.133s0.354-0.045,0.515-0.133
			c5.36-2.842,9.218-6.052,11.456-9.541c2.443-3.828,2.37-7.023,1.869-9.026c-0.942-3.784-4.255-6.522-7.892-6.522
			c-2.282,0-4.344,1.03-5.963,2.945c-1.605-1.915-3.681-2.945-5.963-2.945c-3.637,0-6.95,2.738-7.892,6.522
			c-0.5,2.017-0.574,5.212,1.87,9.026C20.275,41.948,24.118,45.158,29.492,48z M18.302,29.963c0.692-2.813,3.107-4.859,5.742-4.859
			c1.958,0,3.74,1.134,5.021,3.195c0.206,0.324,0.56,0.516,0.942,0.516s0.737-0.191,0.942-0.516
			c1.281-2.061,3.063-3.195,5.021-3.195c2.635,0,5.035,2.046,5.742,4.859c0.486,1.972,1.061,8.864-11.706,15.814
			C17.242,38.827,17.816,31.922,18.302,29.963z"/>
	</g>
</g>
</svg>
