<?xml version="1.0" encoding="utf-8"?>
<!-- Generator: Adobe Illustrator 16.0.3, SVG Export Plug-In . SVG Version: 6.00 Build 0)  -->
<!DOCTYPE svg PUBLIC "-//W3C//DTD SVG 1.1//EN" "http://www.w3.org/Graphics/SVG/1.1/DTD/svg11.dtd">
<svg version="1.1" id="Capa_1" xmlns="http://www.w3.org/2000/svg" xmlns:xlink="http://www.w3.org/1999/xlink" x="0px" y="0px"
	 width="60px" height="60px" viewBox="0 0 60 60" enable-background="new 0 0 60 60" xml:space="preserve">
<g>
	<g>
		<g>
			<path fill="#FFFFFF" d="M18.475,4c0.525,0,1.05-0.225,1.4-0.575c0.375-0.375,0.575-0.875,0.575-1.4s-0.2-1.05-0.575-1.4
				C19.5,0.225,19,0,18.475,0s-1.05,0.225-1.4,0.575C16.7,0.95,16.5,1.45,16.5,1.975s0.225,1.05,0.575,1.4
				C17.425,3.775,17.95,4,18.475,4z"/>
			<path fill="#FFFFFF" d="M18.475,4c0.525,0,1.05-0.225,1.4-0.575c0.375-0.375,0.575-0.875,0.575-1.4s-0.2-1.05-0.575-1.4
				C19.5,0.225,19,0,18.475,0s-1.05,0.225-1.4,0.575C16.7,0.95,16.5,1.45,16.5,1.975s0.225,1.05,0.575,1.4
				C17.425,3.775,17.95,4,18.475,4z"/>
		</g>
		<g>
			<path fill="#FFFFFF" d="M5.3,23.05c-0.525,0-1.05,0.225-1.4,0.575s-0.575,0.875-0.575,1.4s0.225,1.05,0.575,1.4
				C4.275,26.8,4.775,27,5.3,27c0.525,0,1.05-0.225,1.4-0.575c0.35-0.35,0.575-0.875,0.575-1.4s-0.225-1.05-0.575-1.4
				C6.35,23.275,5.825,23.05,5.3,23.05z"/>
			<path fill="#FFFFFF" d="M5.3,23.05c-0.525,0-1.05,0.225-1.4,0.575s-0.575,0.875-0.575,1.4s0.225,1.05,0.575,1.4
				C4.275,26.8,4.775,27,5.3,27c0.525,0,1.05-0.225,1.4-0.575c0.35-0.35,0.575-0.875,0.575-1.4s-0.225-1.05-0.575-1.4
				C6.35,23.275,5.825,23.05,5.3,23.05z"/>
		</g>
		<path fill="#FCFCFC" d="M53.4,34.95c0-0.525-0.2-1.05-0.575-1.4c-0.375-0.375-0.875-0.575-1.4-0.575
			c-0.524,0-1.05,0.226-1.399,0.575c-0.375,0.375-0.575,0.875-0.575,1.4c0,0.524,0.225,1.05,0.575,1.399
			c0.375,0.375,0.899,0.575,1.399,0.575c0.525,0,1.05-0.225,1.4-0.575C53.2,35.975,53.4,35.475,53.4,34.95z"/>
		<g>
			<path fill="#FFFFFF" d="M5.3,46.125c-0.525,0-1.05,0.225-1.4,0.575c-0.375,0.375-0.575,0.875-0.575,1.399
				c0,0.525,0.225,1.051,0.575,1.4c0.375,0.375,0.875,0.575,1.4,0.575c0.525,0,1.05-0.226,1.4-0.575
				c0.375-0.375,0.575-0.875,0.575-1.4c0-0.524-0.2-1.05-0.575-1.399C6.325,46.325,5.825,46.125,5.3,46.125z"/>
			<path fill="#FFFFFF" d="M5.3,46.125c-0.525,0-1.05,0.225-1.4,0.575c-0.375,0.375-0.575,0.875-0.575,1.399
				c0,0.525,0.225,1.051,0.575,1.4c0.375,0.375,0.875,0.575,1.4,0.575c0.525,0,1.05-0.226,1.4-0.575
				c0.375-0.375,0.575-0.875,0.575-1.4c0-0.524-0.2-1.05-0.575-1.399C6.325,46.325,5.825,46.125,5.3,46.125z"/>
		</g>
		<g>
			<path fill="#FFFFFF" d="M41.525,56c-0.525,0-1.051,0.225-1.4,0.575c-0.375,0.375-0.575,0.875-0.575,1.399
				c0,0.525,0.226,1.051,0.575,1.4s0.875,0.575,1.4,0.575c0.524,0,1.05-0.226,1.399-0.575C43.3,59,43.5,58.5,43.5,57.975
				c0-0.524-0.2-1.05-0.575-1.399C42.575,56.225,42.05,56,41.525,56z"/>
			<path fill="#FFFFFF" d="M41.525,56c-0.525,0-1.051,0.225-1.4,0.575c-0.375,0.375-0.575,0.875-0.575,1.399
				c0,0.525,0.226,1.051,0.575,1.4s0.875,0.575,1.4,0.575c0.524,0,1.05-0.226,1.399-0.575C43.3,59,43.5,58.5,43.5,57.975
				c0-0.524-0.2-1.05-0.575-1.399C42.575,56.225,42.05,56,41.525,56z"/>
		</g>
		<path fill="#FCFAFA" d="M54.7,50.875c-0.525,0-1.05,0.225-1.4,0.575c-0.375,0.375-0.575,0.875-0.575,1.399
			c0,0.525,0.226,1.051,0.575,1.4c0.375,0.375,0.9,0.575,1.4,0.575c0.524,0,1.05-0.226,1.399-0.575
			c0.375-0.375,0.575-0.875,0.575-1.4c0-0.524-0.2-1.05-0.575-1.399C55.75,51.075,55.225,50.875,54.7,50.875z"/>
		<g>
			<path fill="#FFFFFF" d="M54.7,8.725c0.524,0,1.05-0.225,1.399-0.575c0.351-0.35,0.575-0.875,0.575-1.4S56.45,5.7,56.1,5.35
				c-0.375-0.375-0.875-0.575-1.399-0.575c-0.525,0-1.05,0.225-1.4,0.575c-0.375,0.375-0.575,0.875-0.575,1.4S52.95,7.8,53.3,8.15
				C53.675,8.525,54.175,8.725,54.7,8.725z"/>
			<path fill="#FFFFFF" d="M54.7,8.725c0.524,0,1.05-0.225,1.399-0.575c0.351-0.35,0.575-0.875,0.575-1.4S56.45,5.7,56.1,5.35
				c-0.375-0.375-0.875-0.575-1.399-0.575c-0.525,0-1.05,0.225-1.4,0.575c-0.375,0.375-0.575,0.875-0.575,1.4S52.95,7.8,53.3,8.15
				C53.675,8.525,54.175,8.725,54.7,8.725z"/>
		</g>
		<g>
			<path fill="#FFFFFF" d="M5.3,4.75c-0.525,0-1.05,0.225-1.4,0.575c-0.35,0.35-0.575,0.875-0.575,1.4s0.225,1.05,0.575,1.4
				C4.275,8.5,4.775,8.7,5.3,8.7c0.525,0,1.05-0.225,1.4-0.575c0.375-0.375,0.575-0.875,0.575-1.4s-0.2-1.05-0.575-1.4
				C6.325,4.95,5.825,4.75,5.3,4.75z"/>
			<path fill="#FFFFFF" d="M5.3,4.75c-0.525,0-1.05,0.225-1.4,0.575c-0.35,0.35-0.575,0.875-0.575,1.4s0.225,1.05,0.575,1.4
				C4.275,8.5,4.775,8.7,5.3,8.7c0.525,0,1.05-0.225,1.4-0.575c0.375-0.375,0.575-0.875,0.575-1.4s-0.2-1.05-0.575-1.4
				C6.325,4.95,5.825,4.75,5.3,4.75z"/>
		</g>
	</g>
	<g>
		<g>
			<polygon fill="#FFFFFF" points="23.95,24.925 42.4,17.95 36.1,16.375 17.675,23.35 			"/>
			<polygon fill="#FFFFFF" points="23.95,24.925 42.4,17.95 36.1,16.375 17.675,23.35 			"/>
		</g>
		<g>
			<path fill="#FFFFFF" d="M45.425,46.8v-7.475c0-0.2-0.1-0.375-0.25-0.5c-0.1-0.075-0.225-0.101-0.35-0.101
				c-0.075,0-0.15,0.025-0.2,0.051l-29.65,11.199C14.75,50.075,14.6,50.3,14.6,50.525V58c0,0.2,0.1,0.375,0.25,0.5
				c0.15,0.1,0.375,0.125,0.55,0.075l29.65-11.2C45.275,47.275,45.425,47.05,45.425,46.8z"/>
			<path fill="#FFFFFF" d="M45.425,46.8v-7.475c0-0.2-0.1-0.375-0.25-0.5c-0.1-0.075-0.225-0.101-0.35-0.101
				c-0.075,0-0.15,0.025-0.2,0.051l-29.65,11.199C14.75,50.075,14.6,50.3,14.6,50.525V58c0,0.2,0.1,0.375,0.25,0.5
				c0.15,0.1,0.375,0.125,0.55,0.075l29.65-11.2C45.275,47.275,45.425,47.05,45.425,46.8z"/>
		</g>
		<g>
			<path fill="#FFFFFF" d="M45.425,28.125v-7.45c0-0.2-0.1-0.375-0.25-0.5c-0.1-0.075-0.225-0.1-0.35-0.1
				c-0.075,0-0.15,0.025-0.2,0.05L14.975,31.3c-0.225,0.075-0.375,0.3-0.375,0.55v7.476c0,0.2,0.1,0.375,0.25,0.5
				c0.15,0.1,0.375,0.125,0.55,0.075l29.65-11.2C45.275,28.6,45.425,28.375,45.425,28.125z"/>
			<path fill="#FFFFFF" d="M45.425,28.125v-7.45c0-0.2-0.1-0.375-0.25-0.5c-0.1-0.075-0.225-0.1-0.35-0.1
				c-0.075,0-0.15,0.025-0.2,0.05L14.975,31.3c-0.225,0.075-0.375,0.3-0.375,0.55v7.476c0,0.2,0.1,0.375,0.25,0.5
				c0.15,0.1,0.375,0.125,0.55,0.075l29.65-11.2C45.275,28.6,45.425,28.375,45.425,28.125z"/>
		</g>
		<g>
			<path fill="#FFFFFF" d="M44.625,1.425l-29.65,11.2c-0.225,0.1-0.375,0.325-0.375,0.55v7.475c0,0.2,0.1,0.375,0.25,0.5
				c0.15,0.1,0.375,0.125,0.55,0.075l29.65-11.2c0.226-0.075,0.375-0.325,0.375-0.55V2c0-0.2-0.1-0.375-0.25-0.5
				c-0.1-0.075-0.225-0.1-0.35-0.1C44.75,1.4,44.675,1.4,44.625,1.425z"/>
			<path fill="#FFFFFF" d="M44.625,1.425l-29.65,11.2c-0.225,0.1-0.375,0.325-0.375,0.55v7.475c0,0.2,0.1,0.375,0.25,0.5
				c0.15,0.1,0.375,0.125,0.55,0.075l29.65-11.2c0.226-0.075,0.375-0.325,0.375-0.55V2c0-0.2-0.1-0.375-0.25-0.5
				c-0.1-0.075-0.225-0.1-0.35-0.1C44.75,1.4,44.675,1.4,44.625,1.425z"/>
		</g>
		<g>
			<polygon fill="#FFFFFF" points="36.05,35.075 17.625,42.05 23.9,43.625 42.325,36.65 			"/>
			<polygon fill="#FFFFFF" points="36.05,35.075 17.625,42.05 23.9,43.625 42.325,36.65 			"/>
		</g>
	</g>
</g>
</svg>
