<?xml version="1.0" encoding="utf-8"?>
<!-- Generator: Adobe Illustrator 19.2.1, SVG Export Plug-In . SVG Version: 6.00 Build 0)  -->
<svg version="1.1" id="Capa_1" xmlns="http://www.w3.org/2000/svg" xmlns:xlink="http://www.w3.org/1999/xlink" x="0px" y="0px"
	 viewBox="0 0 484.7 484.7" style="enable-background:new 0 0 484.7 484.7;" xml:space="preserve">
<style type="text/css">
	.st0{fill:#515151;}
</style>
<g>
	<path class="st0" d="M451.1,438h-9.8V195.8h0c-12.1,0-23.5-3.9-33-10.6c-6.4,4.5-13.8,7.8-22,9.5c-3.7,0.7-7.6,1.1-11.3,1.1
		c-2.5,0-4.9-0.3-7.4-0.6v180.2c0,10.3-8.3,18.6-18.6,18.6H282v-51l23.6,39.4c2.8,4.7,7.7,7.2,12.8,7.2c2.6,0,5.2-0.7,7.6-2.1
		c7-4.2,9.3-13.4,5.1-20.4l-47.4-79.2c-2.9-4.9-8.3-7.3-13.6-7c-0.4,0-55,0-55.3,0c-5.4-0.4-10.8,2.1-13.8,7.1l-47.4,79.2
		c-4.2,7.1-1.9,16.2,5.1,20.4c2.4,1.4,5,2.1,7.6,2.1c5.1,0,10-2.6,12.8-7.2l23.7-39.6V394h-67.1c-10.3,0-18.6-8.3-18.6-18.6V195.2
		c-2.4,0.3-4.9,0.6-7.4,0.6c-3.7,0-7.6-0.4-11.4-1.1c-8.2-1.6-15.5-5-21.9-9.5c-9.5,6.6-21,10.6-33,10.6h0V438h-9.8
		c-12.9,0-23.3,10.4-23.3,23.3c0,12.9,10.4,23.3,23.3,23.3h417.5c12.9,0,23.3-10.4,23.3-23.3C474.4,448.5,464,438,451.1,438z"/>
	<path class="st0" d="M242.3,197.2c-17.1,0-31,15.9-31,35.5c0,19.6,13.9,35.5,31,35.5c17.1,0,31-15.9,31-35.5
		C273.3,213.1,259.5,197.2,242.3,197.2z"/>
	<path class="st0" d="M33.9,169.6c3.2,0.9,6.4,1.4,9.5,1.4c14.3,0,27.5-9.3,31.7-23.7l1.7-5.8c1.6,14,11.8,26,26.3,28.9
		c2.2,0.4,4.4,0.6,6.5,0.6c15.5,0,29.3-10.9,32.5-26.7l0.8-4.1c1.1,15.8,13.4,29,29.7,30.6c1.1,0.1,2.2,0.2,3.3,0.2
		c16.8,0,31.2-12.8,32.9-29.9l0.2-2.5c0.5,17.9,15,32.3,33.1,32.3c18,0,32.6-14.4,33.1-32.3l0.2,2.5c1.7,17.1,16.1,29.9,32.9,29.9
		c1.1,0,2.2,0,3.3-0.2c16.3-1.6,28.6-14.8,29.7-30.6l0.8,4.1c3.1,15.8,17,26.7,32.5,26.7c2.1,0,4.3-0.2,6.5-0.6
		c14.5-2.9,24.8-14.9,26.3-28.9l1.7,5.8c4.3,14.4,17.5,23.7,31.7,23.7c3.1,0,6.3-0.5,9.5-1.4c17.5-5.2,27.5-23.7,22.3-41.2
		L443.1,28.2C438.1,11.4,422.7,0,405.3,0H79.4C61.9,0,46.6,11.4,41.6,28.2L11.7,128.3C6.4,145.8,16.4,164.3,33.9,169.6z"/>
</g>
</svg>
